Coordinates
version=1
nRows=4
nColumns=63
inDegrees=yes

Units are S.I. units (second, meters, Newtons, ...)
If the header above contains a line with 'inDegrees', this indicates whether rotational values are in degrees (yes) or radians (no).

endheader
time	pelvis_tilt	pelvis_list	pelvis_rotation	pelvis_tx	pelvis_ty	pelvis_tz	hip_flexion_r	hip_adduction_r	hip_rotation_r	knee_angle_r	knee_angle_r_beta	ankle_angle_r	subtalar_angle_r	mtp_angle_r	hip_flexion_l	hip_adduction_l	hip_rotation_l	knee_angle_l	knee_angle_l_beta	ankle_angle_l	subtalar_angle_l	mtp_angle_l	L5_S1_Flex_Ext	L5_S1_Lat_Bending	L5_S1_axial_rotation	L4_L5_Flex_Ext	L4_L5_Lat_Bending	L4_L5_axial_rotation	L3_L4_Flex_Ext	L3_L4_Lat_Bending	L3_L4_axial_rotation	L2_L3_Flex_Ext	L2_L3_Lat_Bending	L2_L3_axial_rotation	L1_L2_Flex_Ext	L1_L2_Lat_Bending	L1_L2_axial_rotation	L1_T12_Flex_Ext	L1_T12_Lat_Bending	L1_T12_axial_rotation	Abs_r3	Abs_r2	Abs_r1	Abs_t1	Abs_t2	neck_flexion	neck_bending	neck_rotation	arm_flex_r	arm_add_r	arm_rot_r	elbow_flex_r	pro_sup_r	wrist_flex_r	wrist_dev_r	arm_flex_l	arm_add_l	arm_rot_l	elbow_flex_l	pro_sup_l	wrist_flex_l	wrist_dev_l
      0.00000000	      2.82816061	     -4.27456457	     95.34605014	      0.15476839	      0.97195204	      0.29506700	     -5.60650844	      1.24465218	    -11.07832391	      5.01460924	      0.08752144	     28.71007266	      8.60489676	      0.00000000	     -6.54593853	     -3.27457512	      4.59751696	      0.34312000	      0.00598857	     23.10226827	     -1.41021083	      0.00000000	      0.34049892	      0.20375786	     -1.00194156	      0.63234055	      0.27099795	     -1.06456291	      0.55940568	      0.49541686	     -1.06456291	      0.38915622	      0.49541686	     -0.87669887	      0.31618730	      0.41550303	     -0.81407752	      0.19456109	      0.31562093	     -0.75145617	      2.43214977	      2.30494967	     -5.57249840	      0.00000000	      0.00000000	     26.50114074	      1.05926823	    -12.11452360	     37.48552959	     -3.46332662	     81.50698049	     29.80490528	      4.08246640	     -1.97818564	     23.50428343	     34.70125463	      0.33339213	     57.61745443	     26.83538465	     76.99504049	    -14.01893108	      2.08155437
      0.01694915	      2.21044649	     -3.79873640	     95.64033786	      0.15532832	      0.97223172	      0.29177364	     -6.55337099	      0.77989645	    -11.26332405	      4.92096988	      0.08588713	     28.12121970	      7.75465032	      0.00000000	     -7.26230180	     -2.77731390	      4.40132129	      0.36323163	      0.00633959	     22.87393089	     -1.05323776	      0.00000000	      0.35902994	      0.09979116	     -1.05712564	      0.66675451	      0.13272224	     -1.12319599	      0.58985029	      0.24263223	     -1.12319599	      0.41033532	      0.24263223	     -0.92498493	      0.33339520	      0.20349413	     -0.85891458	      0.20514971	      0.15457651	     -0.79284423	      2.56451497	      1.12885755	     -5.87941565	      0.00000000	      0.00000000	     25.83871464	      0.77814871	    -13.57678123	     38.32903002	     -2.72761487	     83.37365758	     29.36543473	      4.83259378	     -1.75435760	     24.46954897	     36.02755592	     -0.52154811	     60.52193642	     26.60568203	     79.19210433	    -11.67041256	      1.81191814
      0.03389831	      1.65988762	     -3.32167374	     96.08261323	      0.15590970	      0.97264730	      0.28913313	     -7.50976434	      0.52835521	     -9.74398636	      4.56945702	      0.07975207	     27.23649714	      4.55684656	      0.00000000	     -7.89773322	     -2.40055400	      3.66785112	      0.40058531	      0.00699153	     23.01343597	      0.54853085	      0.00000000	      0.36360955	     -0.01724217	     -1.09297860	      0.67525930	     -0.02293208	     -1.16128976	      0.59737413	     -0.04192260	     -1.16128976	      0.41556936	     -0.04192260	     -0.95635627	      0.33764783	     -0.03516023	     -0.88804511	      0.20776650	     -0.02670812	     -0.81973395	      2.59722666	     -0.19504684	     -6.07881906	      0.00000000	      0.00000000	     24.92853662	      0.15277236	    -17.03295482	     39.56336213	     -2.14734574	     88.39097203	     28.38777044	      6.95958527	      2.77556857	     22.47411654	     37.19258285	     -1.27967189	     63.34339312	     26.65320755	     80.64793422	     -9.87838588	      1.50245011
      0.05084746	      1.41241824	     -2.79844268	     96.10062066	      0.15634070	      0.97295969	      0.28668895	     -8.51580429	      0.59617555	     -5.49788141	      3.94062687	      0.06877691	     25.74016240	     -1.59487213	      0.00000000	     -8.59952464	     -2.24894193	      2.50048945	      0.42287242	      0.00738052	     23.34433009	      2.19170021	      0.00000000	      0.37157403	     -0.05029199	     -1.12562979	      0.69005014	     -0.06688835	     -1.19598165	      0.61045898	     -0.12227995	     -1.19598165	      0.42467196	     -0.12227995	     -0.98492607	      0.34504365	     -0.10255543	     -0.91457420	      0.21231740	     -0.07790230	     -0.84422234	      2.65411616	     -0.56891309	     -6.26041520	      0.00000000	      0.00000000	     24.38284833	      0.44119528	    -16.59820847	     41.43220701	     -1.19584284	     95.50286821	     26.24329723	     27.06853066	     10.92961094	     15.33663200	     37.53658878	     -1.95054251	     63.19193087	     27.16818996	     80.97900409	     -6.89661709	      1.85958242
